<svg width="91" height="91" viewBox="0 0 91 91" fill="none" xmlns="http://www.w3.org/2000/svg">
<g clip-path="url(#clip0_15_25)">
<path fill-rule="evenodd" clip-rule="evenodd" d="M8.45181 7.57709H82.1687L80.7447 23.4394C80.1796 30.7172 79.2156 38.6536 78.6552 45.8682L76.6528 68.384C76.5419 69.2451 76.3907 70.6091 76.348 71.6071C76.3102 72.484 76.1412 73.8848 76.046 74.6568C75.7536 77.0318 77.6451 76.0945 68.6924 77.8851L45.3106 82.5448L22.0756 77.9144C20.2632 77.5519 18.1577 77.1198 16.3436 76.7683C14.3551 76.3829 14.7322 76.943 14.609 74.9753L8.45216 7.57709H8.45181ZM90.4574 -0.0078125H0.162842L4.34589 46.4331C4.90486 50.7706 5.12974 57.0868 5.75696 61.9558L6.68687 72.315C6.75444 73.8933 6.98103 76.0286 7.16769 77.4786C7.27382 78.3012 7.36084 79.3501 7.39223 80.0764C7.43796 81.1379 7.56968 81.5471 7.56968 82.721C8.35285 83.0968 25.0458 86.3052 26.3077 86.5574L40.4164 89.3799C46.3859 90.5742 44.1394 90.5933 50.0571 89.4092C53.3252 88.7556 82.1793 83.1387 83.0505 82.721L84.4121 67.3255C84.9711 62.988 85.1956 56.6721 85.8228 51.8028L87.6639 31.0657C88.0068 27.7842 88.2297 23.9801 88.6447 20.7573C89.2023 16.4283 89.4674 9.80184 90.0554 5.23458L90.4574 -0.0078125Z" fill="#38E1C6"/>
<path fill-rule="evenodd" clip-rule="evenodd" d="M17.2694 22.5707H56.2443L33.2003 34.2713C32.3124 34.7147 31.7514 35.082 30.9105 35.5086C29.1094 36.423 19.9973 41.0848 19.2094 41.2681L19.7387 49.0295H63.2986C63.2839 49.6907 63.1642 50.1115 63.1171 50.9645C63.0782 51.6697 62.9993 52.2154 62.9324 53.0732L61.9786 63.4088C61.7367 64.2177 61.3378 64.0263 60.4642 64.187L45.3103 67.1982L29.2596 64.0256C28.6801 63.8529 28.6016 63.7256 28.5525 62.9688L28.0273 56.4383H20.444C20.444 59.6088 21.1542 63.8512 21.3207 66.8507C21.3808 67.9348 21.4657 69.4595 21.6787 70.3735C23.245 70.3735 44.0224 74.9599 45.3106 74.9599C46.5985 74.9599 67.3762 70.3735 68.9425 70.3735L71.5879 41.2685H36.493L62.9464 27.8626C64.6257 27.023 66.6333 26.1366 68.2293 25.2088L72.0588 23.2182C73.3198 22.6032 73.503 23.3445 73.703 18.6889C73.7542 17.4953 74.0326 16.0753 74.0569 14.9858H16.5647C16.5995 16.543 17.2701 21.0556 17.2701 22.5707H17.2694Z" fill="#38E1C6"/>
</g>
<defs>
<clipPath id="clip0_15_25">
<rect width="90.2946" height="90.2946" fill="white" transform="translate(0.162842 -0.0078125)"/>
</clipPath>
</defs>
</svg>
