<svg width="83" height="91" viewBox="0 0 83 91" fill="none" xmlns="http://www.w3.org/2000/svg">
<g clip-path="url(#clip0_15_20)">
<path fill-rule="evenodd" clip-rule="evenodd" d="M41.1409 80.2348L23.788 71.8292C22.7784 71.3198 21.9775 70.9225 20.966 70.4171C20.4248 70.1457 20.0962 69.9785 19.5531 69.711C17.9591 68.9263 18.2267 69.4652 17.8784 66.9754L16.613 57.6592C16.4753 56.3985 16.2352 55.1654 16.0974 53.9402C15.0289 44.3801 13.2223 33.8072 12.0554 24.1193L10.0836 9.16066H71.8459C71.6275 9.61693 71.2044 13.7411 71.0627 14.7264C70.7774 16.6852 70.6042 18.41 70.3326 20.3452L64.5588 65.3666C64.5234 65.638 64.423 66.2811 64.3561 66.7512C64.3069 67.1032 64.2735 67.8879 64.1888 68.1711C63.994 68.828 61.0461 70.1968 60.257 70.5902L41.1409 80.2309V80.2348ZM41.1409 90.2865L52.7869 84.4671C53.8417 83.94 71.596 74.7733 72.3753 74.5904L74.1917 60.7095C74.3747 59.3073 74.6659 57.5294 74.8312 56.0583C75.5318 49.8023 76.6456 43.5462 77.3167 37.3787C78.0861 30.2908 79.4715 21.4328 80.4417 14.0479C80.6601 12.3742 80.8195 11.0015 81.0537 9.36912L81.9806 2.35788C82.1006 1.49844 82.26 0.871066 82.26 -0.0100098H0.0276184L9.79428 74.1754C9.94187 75.0663 10.0147 75.0231 10.7251 75.3633L41.1448 90.2865H41.1409Z" fill="#38E1C6"/>
<path fill-rule="evenodd" clip-rule="evenodd" d="M23.8467 45.1394H48.7288C48.7288 45.9989 48.5261 47.2988 48.4297 48.0147L47.4929 56.7783L42.0812 59.4884C41.0658 60.0213 41.2134 60.0213 40.1979 59.4884L35.6009 57.2011C34.9811 56.9061 35.0303 57.0477 34.8276 56.5619C34.737 56.3456 34.4399 54.4438 34.434 54.135H25.2577C25.3285 54.9827 25.6198 56.2178 25.7359 57.0084C25.8658 57.9032 26.4247 62.3951 26.8182 62.8042C27.0386 63.0323 28.7409 63.8112 29.1384 64.0118C32.2457 65.5654 35.2743 67.0778 38.4327 68.6551C42.0005 70.4369 40.1389 70.5058 47.7271 66.716L54.6738 63.2526C56.0316 62.6036 55.6518 62.5938 55.886 60.9359L59.2117 36.5371C59.2393 35.7269 59.2413 35.9707 56.6692 35.9727H32.1414C31.984 34.0866 30.9056 28.7333 30.9056 27.1541H60.1996C60.9061 27.1541 60.7998 25.917 60.8963 25.2031C61.0163 24.3043 61.1462 23.6534 61.2702 22.7546C61.4571 21.3858 61.9373 19.2932 61.9668 17.9834H20.3203L21.192 24.6957C21.5167 26.979 21.8414 29.2447 22.0992 31.5496C22.3413 33.711 22.6778 36.0022 22.9986 38.2344L23.8507 45.1434L23.8467 45.1394Z" fill="#38E1C6"/>
</g>
<defs>
<clipPath id="clip0_15_20">
<rect width="82.2326" height="90.2946" fill="white" transform="translate(0.0232849 -0.0078125)"/>
</clipPath>
</defs>
</svg>
