<svg width="68" height="91" viewBox="0 0 68 91" fill="none" xmlns="http://www.w3.org/2000/svg">
<g clip-path="url(#clip0_15_41)">
<path d="M31.8352 48.5909C31.8352 48.5909 26.7898 38.8791 26.9786 31.7653C27.1149 26.7 38.5501 21.6744 43.0476 14.3902C47.5436 7.08616 42.4982 -0.0078125 42.4982 -0.0078125C42.4982 -0.0078125 43.6154 5.22642 40.6186 10.6509C37.6416 16.0555 26.5996 19.2454 22.2966 28.5938C18.0093 37.9464 31.8338 48.5909 31.8338 48.5909H31.8352Z" fill="#38E1C6"/>
<path d="M50.7292 19.0566C50.7292 19.0566 33.5245 25.5983 33.5245 33.0713C33.5245 40.5642 38.1909 42.9918 38.949 45.4194C39.6915 47.847 37.6429 51.9654 37.6429 51.9654C37.6429 51.9654 44.3735 47.2791 43.2377 41.8746C42.1205 36.4501 36.8806 34.7607 39.8817 29.3362C41.8919 25.7133 50.7306 19.0552 50.7306 19.0552L50.7292 19.0566Z" fill="#38E1C6"/>
<path d="M29.9797 58.4731C45.8741 57.9053 51.6563 52.8939 51.6563 52.8939C41.3767 55.7006 14.0797 55.5118 13.8909 53.4618C13.7007 51.3976 22.2966 49.7083 22.2966 49.7083C22.2966 49.7083 8.84548 49.7083 7.72822 53.0827C6.6067 56.443 14.0797 59.041 29.9783 58.4731H29.9797Z" fill="#38E1C6"/>
<path d="M52.968 66.3648C52.968 66.3648 68.5217 63.0428 66.987 54.5846C65.1273 44.3049 54.2741 50.107 54.2741 50.107C54.2741 50.107 61.9416 50.107 62.6798 54.7734C63.4379 59.4398 52.968 66.3648 52.968 66.3648Z" fill="#38E1C6"/>
<path d="M45.3048 61.8675C45.3048 61.8675 41.3766 62.9109 35.5731 63.5569C27.7934 64.4257 18.3684 63.7471 17.6302 62.4354C16.8877 61.1293 18.9363 60.3669 18.9363 60.3669C9.58365 62.6242 14.7072 66.5339 25.6526 67.292C35.0592 67.9379 49.0399 64.4853 49.0399 64.4853L45.3062 61.8675H45.3048Z" fill="#38E1C6"/>
<path d="M21.1949 70.0459C21.1949 70.0459 16.9459 70.1581 16.6989 72.3968C16.4505 74.6356 19.3167 76.6458 29.7852 77.252C40.2594 77.8781 47.5975 74.407 47.5975 74.407L42.8772 71.5223C42.8772 71.5223 39.8803 72.1484 35.2679 72.7745C30.6597 73.4005 21.1949 72.279 20.8159 71.4102C20.4368 70.5357 21.1949 70.0459 21.1949 70.0459Z" fill="#38E1C6"/>
<path d="M28.0419 85.9971C50.4624 85.9772 60.3303 81.8787 61.9416 80.1354C63.5543 78.3878 61.4263 77.0221 61.4263 77.0221C61.4263 77.0221 62.1844 77.8966 61.1977 78.8818C60.1926 79.8869 51.087 82.3727 36.5002 83.111C21.9318 83.8676 6.09703 81.7467 5.60015 79.887C5.10469 78.0073 13.7006 76.5125 13.7006 76.5125C12.714 76.6431 0.744961 76.8915 0.365915 80.1354C-0.0117103 83.3793 5.60157 85.9971 28.0405 85.9971H28.0419Z" fill="#38E1C6"/>
<path d="M53.215 87.4936C43.367 89.4697 13.4536 88.2176 13.4536 88.2176C13.4536 88.2176 32.8971 92.8456 55.089 88.9757C65.6937 87.1159 66.3013 81.9924 66.3013 81.9924C66.3013 81.9924 63.0574 85.4833 53.2136 87.4936H53.215Z" fill="#38E1C6"/>
</g>
<defs>
<clipPath id="clip0_15_41">
<rect width="66.7446" height="90.5253" fill="white" transform="translate(0.348877 -0.0078125)"/>
</clipPath>
</defs>
</svg>
