<svg width="104" height="104" viewBox="0 0 104 104" fill="none" xmlns="http://www.w3.org/2000/svg">
<path fill-rule="evenodd" clip-rule="evenodd" d="M14.8162 14.5768H88.5323L87.1084 30.4386C86.5431 37.7161 85.5793 45.6521 85.0185 52.8669L83.0159 75.3827C82.9051 76.2437 82.754 77.6074 82.7115 78.6061C82.6734 79.4827 82.5044 80.8834 82.4092 81.6559C82.1171 84.0307 84.0088 83.0935 75.056 84.8838L51.6742 89.5437L28.4391 84.9129C26.6269 84.5502 24.5213 84.118 22.7068 83.7664C20.7187 83.3813 21.0948 83.9411 20.9717 81.9739L14.8151 14.5757L14.8162 14.5768ZM96.8213 6.99243H6.52716L10.7103 53.4335C11.2689 57.7709 11.4939 64.0867 12.1219 68.956L13.0521 79.3148C13.1192 80.8935 13.3465 83.0286 13.5334 84.4785C13.6397 85.3014 13.7271 86.3505 13.7573 87.0761C13.8032 88.1375 13.9353 88.5472 13.9353 89.7206C14.7188 90.0968 31.4111 93.3045 32.6738 93.5576L46.7825 96.3802C52.7522 97.5748 50.5056 97.5938 56.4238 96.4093C59.6924 95.7554 88.5457 90.1394 89.4166 89.7206L90.7777 74.3246C91.3363 69.9872 91.5613 63.6714 92.1882 58.8021L94.0296 38.0655C94.3721 34.7838 94.5949 30.9805 95.0101 27.7571C95.5676 23.4275 95.8329 16.8015 96.4206 12.2345L96.8224 6.99243L96.8213 6.99243Z" fill="#38E1C6"/>
<path fill-rule="evenodd" clip-rule="evenodd" d="M55.3772 56.0298H69.6617L68.2994 70.5424C68.0117 71.2243 66.9091 71.1683 65.3565 71.4796L55.3772 73.4938V81.2551C57.5802 81.0714 73.7575 77.3744 75.3056 77.3744L77.9508 48.2697H62.9599V29.5719H79.7138L80.2377 23.9223C80.2847 23.0691 80.4044 22.6481 80.419 21.9875H55.3761V56.0321L55.3772 56.0298Z" fill="#38E1C6"/>
<path fill-rule="evenodd" clip-rule="evenodd" d="M40.3875 71.9051L35.919 71.0833C34.41 70.7821 35.0593 70.0991 34.7167 66.8175C34.6227 65.914 34.3921 64.426 34.3921 63.4373H26.8094C26.8094 66.6081 27.5202 70.8504 27.6859 73.8499C27.7463 74.9337 27.8314 76.4586 28.0441 77.3722C28.9049 77.3722 29.6493 77.6051 30.4687 77.7697L47.9725 81.254V21.9854H40.3887V71.9051H40.3875Z" fill="#38E1C6"/>
</svg>
