<svg width="96" height="91" viewBox="0 0 96 91" fill="none" xmlns="http://www.w3.org/2000/svg">
<g clip-path="url(#clip0_15_53)">
<path fill-rule="evenodd" clip-rule="evenodd" d="M19.5782 76.8361C19.5782 67.9899 21.2838 65.2834 21.4881 62.831C24.1276 64.097 35.2686 65.3676 35.9001 65.8197L40.5554 71.7738C40.9577 72.2727 41.2523 72.4987 41.6468 73.0164C42.063 73.5605 42.2704 73.7226 42.7646 74.2324L45.0408 76.8361L38.7064 82.1712C36.2805 83.9875 34.3238 85.1926 31.2821 86.4181C23.9249 89.3803 19.5782 84.9837 19.5782 76.8361ZM66.6853 85.7477C62.0533 85.7477 56.7198 82.3053 53.4801 79.6424C52.3856 78.7428 50.3869 77.3552 50.1343 76.4104L52.1081 74.1404C54.4249 71.4012 55.8483 69.7704 57.9764 66.6413C58.7528 65.5001 59.4201 65.734 61.1319 65.5531C62.2669 65.4331 63.8852 65.1743 65.0187 64.9841C66.2285 64.7814 71.6556 63.8319 72.4149 63.4671C73.3628 67.5378 74.1298 72.4239 73.659 77.2305C73.249 81.4041 71.2596 85.7477 66.6853 85.7477ZM40.585 66.013C41.9368 66.013 42.3561 66.236 43.7624 66.2298L53.9525 66.2251C53.0591 67.5581 51.9366 68.8459 50.892 70.1664C50.3635 70.8352 49.7991 71.515 49.2316 72.1121L47.5868 74.075C46.1275 73.0974 45.1702 71.5898 43.9246 70.3114C43.2791 69.6488 42.8301 68.9238 42.2174 68.1989C41.5314 67.3881 41.0871 66.961 40.585 66.0115V66.013ZM61.1678 61.9813L64.7053 56.1816C65.1029 55.4348 67.5787 50.5331 68.1711 50.0981C68.2366 50.8886 68.7495 51.8193 68.9881 52.4648L71.5667 60.0715C69.9173 60.4565 68.2382 60.8058 66.4936 61.1519C65.0483 61.4388 62.6832 61.855 61.1678 61.9813ZM25.9439 50.0981H26.3679C26.6018 51.1022 28.903 54.9967 29.5391 56.0522L32.9456 61.7693C32.3828 61.4996 24.5875 60.4129 22.5482 59.4354C22.9474 57.7235 24.3443 54.2047 25.0646 52.4024C25.353 51.6821 25.7771 50.8137 25.9439 50.0981ZM70.081 45.8544L73.8212 36.0136C74.2109 34.8536 74.5025 33.4442 74.9624 32.4854C76.8068 32.9157 78.687 33.7701 80.4191 34.456C83.5481 35.6955 87.2728 37.8486 89.5552 40.1731C93.2705 43.957 92.9134 47.8702 89.3697 51.5621L87.6984 53.0728C84.9186 55.19 77.87 58.7681 74.9624 59.0097L72.7095 52.3494C72.4086 51.4748 70.081 45.9713 70.081 45.8528V45.8544ZM19.1542 58.3736C16.4071 58.1445 8.2454 53.7027 5.99411 50.7389C1.92963 45.3913 4.30097 41.2458 9.68909 37.6615L19.1542 33.1215C19.3865 34.1177 19.8557 35.3977 20.2143 36.3051L24.034 45.8528C24.034 45.9339 19.6624 56.1847 19.1542 58.3721V58.3736ZM37.615 29.3033C41.0091 29.3033 45.1001 28.8793 49.4982 28.8793C57.6443 28.8793 56.5078 28.8949 58.1152 31.2974C58.6608 32.1128 59.0802 32.8003 59.5947 33.6375L64.9002 43.1852C66.2691 46.2488 66.6058 45.382 63.6467 50.6672C61.6792 54.1829 60.6424 56.4139 58.1978 60.073C57.6802 60.8463 57.1594 61.5635 56.712 62.4069L48.2276 62.8435L39.5233 62.4085C37.2642 62.3726 36.9166 61.4668 34.9241 58.0946C32.2628 53.5904 30.936 51.6884 28.3994 46.5653C27.6994 45.1512 29.6092 42.744 30.752 40.4771L35.7909 32.1486C36.452 31.1586 37.0849 30.3074 37.615 29.3049V29.3033ZM61.3814 29.7274C64.0084 29.7274 70.2883 31.4018 71.3547 31.4252C71.3547 33.6516 68.2631 40.2932 68.1711 41.3986L61.3798 29.7274H61.3814ZM26.3695 41.3986H25.9454C25.6835 40.2745 23.2077 34.8786 22.5514 32.0613L30.2079 30.3822C30.9843 30.2263 32.1755 30.0049 32.9488 29.9394C31.9478 31.8306 29.3302 35.669 27.927 38.2851L26.3711 41.3986H26.3695ZM40.5866 25.4836C41.639 23.9121 42.6882 22.8332 43.8591 21.3287C44.4811 20.5289 46.8353 17.9237 47.5899 17.4202L49.9893 20.3247C51.1321 21.6842 53.2275 24.107 53.9556 25.4836C51.9491 25.4836 50.8016 25.2716 48.8621 25.2716C45.8796 25.2716 43.6237 25.4836 40.5866 25.4836ZM49.9238 14.8742L52.8284 12.4748C56.9334 9.01682 65.9853 2.87099 70.8854 7.49205C75.2555 11.6142 73.6232 22.8488 72.4149 28.0296C71.0663 28 63.5734 25.9077 58.6218 25.9077C57.7472 24.2551 52.791 17.9674 51.1446 16.1979C50.6566 15.674 50.3105 15.4542 49.9223 14.8742H49.9238ZM35.7067 26.1213C33.22 26.1213 25.7381 27.5245 23.2108 28.2666C22.6948 28.4194 22.1538 28.6127 21.4896 28.6672C21.4335 27.9906 21.3244 27.9376 21.1607 27.2984C21.0032 26.6748 20.9471 26.3271 20.8099 25.7393C19.3818 19.6574 17.4626 4.26479 26.5815 4.26479C31.4489 4.26479 37.6696 8.06111 41.1697 11.3211C42.4138 12.4795 43.9074 13.4976 44.8304 14.8742L35.7067 26.1213ZM15.9721 15.7239C15.9721 22.5121 17.9147 27.5728 18.094 29.729C16.6129 30.5116 13.9656 31.182 9.74522 33.4754C5.83197 35.602 0.481262 40.2215 0.481262 45.0078C0.481262 50.4474 2.79491 53.196 6.96852 56.3453C9.00778 57.8841 12.4595 59.7394 14.94 60.6811C15.9752 61.0739 17.0229 61.5214 18.094 61.7708C17.9131 63.9535 15.9721 68.9472 15.9721 75.7759C15.9721 82.667 18.6615 90.8411 26.3695 90.8411C33.5693 90.8411 38.3275 86.8577 43.3461 82.9912C44.213 82.3224 46.8416 79.9698 47.3779 79.1715C49.0523 80.2925 51.2412 82.5921 54.8879 85.0289C57.3746 86.6909 61.0197 88.5696 64.4122 89.0856C73.0931 90.4077 77.2979 83.5478 77.2979 75.3518C77.2979 69.6519 77.0843 68.0804 75.8121 62.6205L82.4506 60.1354C95.5108 54.5415 101.632 43.5314 88.4156 34.7367C86.5244 33.4785 84.6691 32.4932 82.5316 31.4969C80.8042 30.6925 77.7126 29.5356 75.8105 29.0929C75.876 28.3024 76.1426 27.5447 76.325 26.6358C77.5738 20.373 78.1819 12.4405 74.8782 6.89649C73.6216 4.78708 70.5674 2.3565 67.3245 2.3565C62.1968 2.3565 59.5573 3.71912 55.4507 6.18556C52.6054 7.89585 51.7308 8.91236 49.4998 10.632C48.7764 11.1886 48.2977 11.8559 47.5899 12.3298C46.5438 11.6298 42.8145 7.82725 38.7235 5.07083C25.7116 -3.6989 15.9737 1.23397 15.9737 15.7255L15.9721 15.7239Z" fill="#38E1C6"/>
<path fill-rule="evenodd" clip-rule="evenodd" d="M48.8621 52.4335C46.7231 52.4335 45.005 52.4163 43.1778 50.4784C40.7768 47.934 40.7144 43.7105 43.4989 40.9182C47.4901 36.9146 54.8037 39.8207 54.8037 45.6438C54.8037 47.722 54.1302 49.1875 53.0591 50.2648C52.08 51.247 50.7408 52.4335 48.8621 52.4335ZM37.8286 45.6438C37.8286 58.3688 55.4429 59.482 58.0372 48.2396C60.8295 36.1366 44.0633 30.5801 38.8295 41.3392C38.3057 42.4149 37.8286 44.1221 37.8286 45.6422V45.6438Z" fill="#38E1C6"/>
</g>
<defs>
<clipPath id="clip0_15_53">
<rect width="95.3081" height="90.1279" fill="white" transform="translate(0.480713 0.713135)"/>
</clipPath>
</defs>
</svg>
