<svg width="112" height="67" viewBox="0 0 112 67" fill="none" xmlns="http://www.w3.org/2000/svg">
<path d="M56.0722 0C41.2025 0 31.9085 7.43505 28.1913 22.3048C33.7674 14.8697 40.273 12.0817 47.708 13.9406C51.95 15.0009 54.9822 18.0787 58.3382 21.4851C63.8056 27.0346 70.133 33.4574 83.9535 33.4574C98.8232 33.4574 108.117 26.0223 111.835 11.1526C106.259 18.5876 99.753 21.3757 92.318 19.5167C88.076 18.4561 85.0438 15.379 81.6878 11.9722C76.2205 6.42271 69.893 0 56.0726 0H56.0722ZM28.1913 33.4574C13.3216 33.4574 4.02758 40.8924 0.310059 55.7622C5.88617 48.3271 12.3918 45.5391 19.8268 47.398C24.0688 48.4583 27.1009 51.536 30.457 54.9425C35.9243 60.492 42.2517 66.9147 56.0722 66.9147C70.942 66.9147 80.2359 59.4797 83.9531 44.6099C78.377 52.045 71.8714 54.833 64.4364 52.9741C60.1944 51.9134 57.1622 48.8364 53.8062 45.4296C48.3389 39.8801 42.0114 33.4574 28.191 33.4574H28.1913Z" fill="#38E1C6"/>
</svg>
