<svg width="92" height="91" viewBox="0 0 92 91" fill="none" xmlns="http://www.w3.org/2000/svg">
<g clip-path="url(#clip0_15_36)">
<path d="M0.891479 90.2868H91.1861V-0.0078125H0.891479V90.2868Z" fill="#38E1C6"/>
<path d="M20.6885 45.2974V48.9769H32.4267V82.3859H40.7563V48.9769H52.4946V45.3652C52.4946 43.3335 52.4946 41.6857 52.4043 41.6405C52.4043 41.5729 45.2486 41.5502 36.5577 41.5502L20.7563 41.6178V45.3198L20.6885 45.2974ZM73.443 41.5275C75.7456 42.0693 77.5062 43.1078 79.0864 44.7556C79.9215 45.6585 81.1632 47.2388 81.2535 47.6451C81.2535 47.7806 77.3483 50.4216 74.9781 51.8889C74.8878 51.9565 74.5266 51.5728 74.1654 50.9859C72.9915 49.3154 71.7952 48.593 69.9216 48.4575C67.2127 48.2769 65.407 49.699 65.407 52.0692C65.407 52.7916 65.5424 53.1979 65.8133 53.7849C66.4227 55.0264 67.5514 55.7714 71.0504 57.3063C77.5064 60.0828 80.3056 61.9112 81.9986 64.5299C83.9173 67.4645 84.3464 72.0695 83.0595 75.5233C81.6147 79.2931 78.0934 81.8439 73.0594 82.679C71.4791 82.9499 67.8675 82.9048 66.1745 82.6114C62.5628 81.9342 59.1091 80.1282 56.9871 77.8032C56.1519 76.9002 54.549 74.4848 54.6393 74.3269L55.4971 73.7852L58.8831 71.8213L61.4339 70.3314L62.0208 71.1214C62.7656 72.2952 64.4361 73.8755 65.4067 74.417C68.3414 75.9294 72.2691 75.7263 74.2105 73.9655C75.0457 73.198 75.4069 72.3853 75.4069 71.2566C75.4069 70.2181 75.249 69.7442 74.7296 68.954C74.0072 67.9607 72.5625 67.148 68.4993 65.3423C63.8265 63.3557 61.8402 62.0918 59.9891 60.1504C58.9282 58.9765 57.9574 57.1481 57.5059 55.6357C57.1674 54.3264 57.0544 51.1211 57.3705 49.8342C58.341 45.3196 61.7497 42.1591 66.6258 41.2562C68.206 40.9401 71.9306 41.0756 73.4882 41.4819L73.443 41.5275Z" fill="#141C27"/>
</g>
<defs>
<clipPath id="clip0_15_36">
<rect width="90.2946" height="90.2946" fill="white" transform="translate(0.891479 -0.0078125)"/>
</clipPath>
</defs>
</svg>
