<?xml version="1.0" encoding="UTF-8"?>
<!DOCTYPE svg PUBLIC "-//W3C//DTD SVG 1.1//EN" "http://www.w3.org/Graphics/SVG/1.1/DTD/svg11.dtd">
<!-- Creator: CorelDRAW -->
<svg xmlns="http://www.w3.org/2000/svg" xml:space="preserve" width="139.419mm" height="157.289mm" version="1.1" style="shape-rendering:geometricPrecision; text-rendering:geometricPrecision; image-rendering:optimizeQuality; fill-rule:evenodd; clip-rule:evenodd"
viewBox="0 0 6151.22 6939.64"
 xmlns:xlink="http://www.w3.org/1999/xlink"
 xmlns:xodm="http://www.corel.com/coreldraw/odm/2003">
 <defs>
  <style type="text/css">
   <![CDATA[
    .str0 {stroke:#38E1C6;stroke-width:175.1;stroke-miterlimit:22.9256}
    .fil0 {fill:none}
   ]]>
  </style>
   <clipPath id="id0">
    <path d="M5654.89 2118.71l0 2702.23c-1.9,81.51 -46.22,156.31 -117.15,197.03l-2345.89 1346.81c-71.97,41.34 -160.49,41.34 -232.49,0l-2345.87 -1346.81c-70.93,-40.72 -115.25,-115.52 -117.15,-197.03l0 -2702.23c1.9,-81.51 46.22,-156.3 117.15,-197.04l2345.87 -1346.8c72,-41.34 160.51,-41.34 232.49,0l2345.89 1346.8c70.93,40.74 115.26,115.52 117.15,197.04z"/>
   </clipPath>
 </defs>
 <g id="Camada_x0020_1">
  <metadata id="CorelCorpID_0Corel-Layer"/>
  <path class="fil0 str0" d="M2915.77 130.17c98.98,-56.83 220.69,-56.83 319.67,0l2667.04 1531.18c99.71,57.25 161.19,163.44 161.19,278.41l0 3060.12c0,114.96 -61.48,221.15 -161.19,278.39l-2667.02 1531.2c-97.44,55.94 -216.91,56.81 -315.02,2.63l-4.66 -2.63 -2667.04 -1531.2c-99.7,-57.24 -161.18,-163.43 -161.18,-278.39l0 -3060.12c0,-114.97 61.48,-221.17 161.18,-278.41l2667.04 -1531.18z"/>
  <g style="clip-path:url(#id0)">
   <image x="496.34" y="194.91" width="5158.55" height="9170.75" xlink:href="Foto Perfil_Images\Foto Perfil_ImgID1.png"/>
  </g>
 </g>
</svg>
