<svg width="112" height="68" viewBox="0 0 112 68" fill="none" xmlns="http://www.w3.org/2000/svg">
<path d="M26.8099 17.5057H47.7933V19.1734H28.7333V31.7258H46.6572V33.3935H28.7333V47.1752H48.0122V48.8429H26.8099V17.5057ZM49.6734 17.5057H51.9031L61.783 31.2874L71.8811 17.5057L85.6165 0L63.0499 32.7355L74.6785 48.8429H72.3614L61.7823 34.1837L51.1591 48.8429H48.8861L60.6021 32.7355L49.6727 17.5057H49.6734ZM75.5098 19.1734V17.5057H99.4228V19.1734H88.4059V48.8429H86.4825V19.1734H75.5098ZM0.558228 17.5057H2.96267L36.1178 67.1192L22.4163 48.8429L2.56903 19.8755L2.48164 48.8429H0.558228L0.558228 17.5057ZM99.2292 46.6725C98.8363 46.6725 98.5416 46.3677 98.5416 45.9748C98.5416 45.5811 98.8363 45.277 99.2292 45.277C99.6272 45.277 99.9168 45.5818 99.9168 45.9748C99.9168 46.3684 99.6272 46.6725 99.2292 46.6725ZM101.119 44.8357H102.149C102.163 45.3933 102.57 45.7682 103.168 45.7682C103.837 45.7682 104.216 45.3652 104.216 44.6111V39.8326H105.264V44.6154C105.264 45.974 104.479 46.7562 103.178 46.7562C101.956 46.7562 101.119 45.9971 101.119 44.8357ZM106.635 44.7751H107.674C107.763 45.4172 108.39 45.8245 109.293 45.8245C110.135 45.8245 110.752 45.389 110.752 44.7895C110.752 44.2745 110.359 43.9647 109.466 43.7545L108.596 43.5436C107.374 43.2576 106.818 42.6675 106.818 41.6743C106.818 40.4703 107.8 39.6693 109.275 39.6693C110.645 39.6693 111.646 40.4703 111.707 41.6086H110.687C110.589 40.9853 110.047 40.5967 109.26 40.5967C108.432 40.5967 107.88 40.9947 107.88 41.6036C107.88 42.086 108.235 42.3627 109.115 42.5685L109.859 42.7513C111.243 43.0748 111.814 43.6368 111.814 44.653C111.814 45.9459 110.813 46.7562 109.213 46.7562C107.716 46.7562 106.71 45.9834 106.635 44.7743V44.7751Z" fill="#38E1C6"/>
</svg>
