<svg width="57" height="40" viewBox="0 0 57 40" fill="none" xmlns="http://www.w3.org/2000/svg">
<path fill-rule="evenodd" clip-rule="evenodd" d="M26.3121 31.7558C26.1504 31.7522 26.2127 31.7772 26.1187 31.9604C25.674 32.8265 25.5933 33.4465 24.9869 34.3022C23.3761 36.5764 22.4141 36.9117 20.163 38.7141C19.6033 39.1626 25.6473 39.0241 26.6829 39.0405C29.9066 39.0908 33.2431 39.1464 36.4609 39.0414C38.1981 38.9847 40.1433 38.9008 41.8383 38.5529C42.3901 38.4494 42.7114 38.4321 43.2804 38.2609C44.4907 37.8968 46.0363 37.1584 47.1573 36.5558C47.589 36.3238 47.9666 36.0444 48.4077 35.8109C49.0135 35.4906 51.0586 33.6438 51.5828 33.075C55.4992 28.8276 57.1133 23.6073 56.5716 17.8976C56.2415 14.4189 55.1198 11.1101 52.9347 8.34101C49.7071 4.25147 45.8449 1.74586 40.5856 1.10211C36.2912 0.634515 31.9159 0.874489 27.5993 0.838316C27.437 0.836846 26.5749 0.818318 26.5091 0.923895C26.3883 1.11858 26.4767 3.75946 26.4803 4.27264C26.4862 5.39193 26.4693 6.50416 26.5254 7.62315C28.0395 8.11545 34.9696 7.75931 37.2539 7.84636C39.5265 7.93312 41.6135 8.3813 43.5011 9.70115C46.0259 11.4657 47.3816 12.9849 48.5012 16.0663C49.4425 18.6575 49.3007 21.3513 48.5288 23.9684C48.3478 24.5824 48.0897 24.8568 47.8503 25.4144C47.3763 26.5184 46.6192 27.5027 45.8565 28.425C45.1345 29.2978 43.5177 30.3912 42.4643 30.8288C39.9122 31.889 37.3532 31.7478 34.6472 31.6905C33.4665 31.6655 27.2543 31.776 26.3118 31.7558H26.3121Z" fill="#0D1117"/>
<path fill-rule="evenodd" clip-rule="evenodd" d="M18.0877 0.872738C17.9242 0.950964 18.0019 1.88557 18.0067 2.03996C18.1556 6.965 18.0592 11.8039 18.0494 16.7216C18.0423 20.2176 18.2075 23.8111 17.9835 27.2957C17.9539 27.7556 17.8948 28.8552 17.6851 29.2534C16.8515 30.8356 15.777 31.592 13.8778 31.9519C12.4495 32.2228 10.8935 31.9402 9.72292 31.0541C7.19187 29.1381 9.11181 25.775 7.6588 25.148C6.92221 24.8301 5.03075 24.9318 4.13011 24.918C3.51603 24.9086 1.60084 24.823 1.12678 24.9656C0.653326 25.1083 0.384557 25.4544 0.368538 25.9382C0.297638 28.0703 0.54119 29.9857 1.35165 31.9775C1.5774 32.5324 2.06184 33.2729 2.36739 33.8323C2.56051 34.1858 2.81415 34.4487 3.05207 34.7687C3.21048 34.9816 3.48874 35.243 3.68216 35.4674C4.02539 35.8653 4.71244 36.3964 5.14377 36.7573C6.24139 37.676 7.38321 38.1089 8.73714 38.5512C11.2774 39.3811 14.7203 39.6469 17.2867 38.7447C18.1832 38.4294 18.9462 37.8718 19.7899 37.4525C20.8178 36.9417 21.2909 36.2847 22.1364 35.5789C23.6315 34.3314 24.6891 32.0866 25.0273 30.2024C25.4871 27.6427 25.1821 24.6292 25.1812 22.0004C25.1792 16.4916 25.1115 10.961 25.175 5.45517C25.1818 4.85935 25.3174 1.11006 25.0869 0.897147C24.8614 0.803334 20.8866 0.871561 20.1639 0.861563C19.4718 0.851858 18.7792 0.842741 18.0874 0.872738H18.0877Z" fill="#0D1117"/>
<path fill-rule="evenodd" clip-rule="evenodd" d="M26.4732 10.969C26.4732 11.5639 26.4729 12.1588 26.4726 12.7538C26.4723 14.1539 26.4717 15.5537 26.4714 16.9536C26.4714 17.6535 26.4711 18.3534 26.4708 19.0533C26.4705 19.7536 26.4705 20.4532 26.4702 21.1531C26.4693 24.5127 26.4646 27.8729 26.4678 31.2326C27.0327 31.0638 28.7995 31.1523 29.5189 31.1196C29.5133 26.2164 29.5076 21.3131 29.502 16.4098C29.5014 15.7096 29.5005 15.0088 29.4996 14.3086C29.4975 12.6308 29.5029 10.9542 29.5035 9.27679C29.4996 8.64362 29.4166 8.75479 28.7099 8.73743C27.9793 8.72185 27.2516 8.74126 26.5215 8.74096C26.4263 9.20474 26.4735 10.1387 26.4735 10.654C26.4735 10.759 26.4735 10.864 26.4735 10.969H26.4732Z" fill="#0D1117"/>
</svg>
