<?xml version="1.0" encoding="UTF-8"?>
<!DOCTYPE svg PUBLIC "-//W3C//DTD SVG 1.1//EN" "http://www.w3.org/Graphics/SVG/1.1/DTD/svg11.dtd">
<!-- Creator: CorelDRAW -->
<svg xmlns="http://www.w3.org/2000/svg" xml:space="preserve" width="162.176mm" height="110.871mm" version="1.1" style="shape-rendering:geometricPrecision; text-rendering:geometricPrecision; image-rendering:optimizeQuality; fill-rule:evenodd; clip-rule:evenodd"
viewBox="0 0 9707.4 6636.4"
 xmlns:xlink="http://www.w3.org/1999/xlink"
 xmlns:xodm="http://www.corel.com/coreldraw/odm/2003">
 <defs>
  <style type="text/css">
   <![CDATA[
    .fil0 {fill:#38E1C6}
   ]]>
  </style>
 </defs>
 <g id="Camada_x0020_1">
  <metadata id="CorelCorpID_0Corel-Layer"/>
  <g id="_1899623170384">
   <path class="fil0" d="M4473.94 5334.51c-27.88,-0.65 -17.13,3.71 -33.35,35.24 -76.62,149.32 -90.56,256.16 -195.06,403.66 -277.67,392 -443.47,449.85 -831.49,760.48 -96.48,77.34 945.3,53.49 1123.81,56.29 555.72,8.67 1130.78,18.24 1685.46,0.13 299.49,-9.77 634.74,-24.24 926.93,-84.17 95.12,-17.85 150.49,-20.85 248.54,-50.36 208.67,-62.74 475.06,-190.03 668.29,-293.88 74.4,-40 139.48,-88.15 215.51,-128.41 104.43,-55.18 456.95,-373.56 547.31,-471.61 675.07,-732.14 953.32,-1631.97 859.96,-2616.17 -56.94,-599.62 -250.23,-1169.94 -626.93,-1647.28 -556.37,-704.91 -1222.05,-1136.78 -2128.66,-1247.79 -740.22,-80.59 -1494.38,-39.22 -2238.44,-45.47 -28.01,-0.26 -176.55,-3.45 -187.95,14.78 -20.78,33.56 -5.54,488.75 -4.95,577.22 1.04,192.9 -1.89,384.64 7.82,577.54 260.98,84.82 1455.48,23.46 1849.24,38.44 391.74,14.98 751.49,92.25 1076.84,319.75 435.26,304.18 668.94,566.01 861.91,1097.16 162.22,446.66 137.79,910.97 4.76,1362.13 -31.21,105.8 -75.71,153.1 -116.94,249.26 -81.7,190.3 -212.25,359.94 -343.72,518.91 -124.44,150.43 -403.14,338.9 -584.71,414.34 -439.88,182.74 -881,158.44 -1347.47,148.54 -203.46,-4.3 -1274.3,14.72 -1436.79,11.27l0.07 0z"/>
   <path class="fil0" d="M3056.31 11.09c-28.21,13.49 -14.78,174.6 -14.01,201.25 25.67,848.95 9.06,1682.98 7.36,2530.69 -1.17,602.62 27.29,1222.05 -11.34,1822.66 -5.08,79.29 -15.31,268.8 -51.4,337.47 -143.72,272.71 -328.94,403.14 -656.31,465.16 -246.19,46.65 -514.41,-2.02 -716.18,-154.8 -436.3,-330.24 -105.34,-909.93 -355.77,-1018.01 -126.97,-54.79 -453.04,-37.27 -608.29,-39.68 -105.8,-1.63 -435.98,-16.35 -517.67,8.21 -81.63,24.63 -127.95,84.24 -130.69,167.62 -12.25,367.57 29.77,697.68 169.46,1041.01 38.89,95.7 122.41,223.33 175.05,319.75 33.29,60.91 77.07,106.25 118.05,161.43 27.29,36.68 75.25,81.7 108.6,120.4 59.16,68.6 177.6,160.14 251.93,222.35 189.19,158.38 386.01,232.97 619.43,309.19 437.86,143.07 1031.3,188.87 1473.66,33.36 154.53,-54.33 286.07,-150.43 431.55,-222.74 177.14,-88.02 258.7,-201.25 404.44,-322.94 257.73,-215.06 440.01,-601.98 498.32,-926.74 79.22,-441.25 26.65,-960.68 26.52,-1413.79 -0.32,-949.6 -11.98,-1902.92 -1.04,-2851.94 1.17,-102.74 24.49,-749.02 -15.18,-785.69 -38.9,-16.16 -724.06,-4.43 -848.62,-6.12 -119.29,-1.69 -238.7,-3.26 -357.93,1.89l0.07 0z"/>
   <path class="fil0" d="M4501.7 1751.41c0,102.54 0,205.08 -0.07,307.7 -0.07,241.31 -0.2,482.62 -0.2,723.93 0,120.65 -0.07,241.24 -0.13,361.9 -0.06,120.72 -0.06,241.31 -0.13,361.97 -0.13,579.11 -0.92,1158.28 -0.4,1737.44 97.4,-29.12 401.9,-13.87 525.95,-19.48 -0.98,-845.17 -1.96,-1690.41 -2.93,-2535.58 -0.07,-120.72 -0.26,-241.51 -0.39,-362.17 -0.39,-289.25 0.59,-578.26 0.65,-867.38 -0.65,-109.13 -14.99,-89.97 -136.82,-92.97 -125.93,-2.67 -251.34,0.65 -377.21,0.59 -16.42,80 -8.27,240.98 -8.27,329.78 0,18.11 0,36.23 0,54.27l-0.07 0z"/>
  </g>
 </g>
</svg>
